<?xml version="1.0" encoding="utf-8" ?>
<svg baseProfile="tiny" height="100%" version="1.2" width="100%" xmlns="http://www.w3.org/2000/svg" xmlns:ev="http://www.w3.org/2001/xml-events" xmlns:xlink="http://www.w3.org/1999/xlink"><defs /><path d="M 286,68 285,69 283,69 282,70 277,70 276,71 274,71 273,72 271,72 270,73 269,73 268,74 267,74 266,75 265,75 264,76 262,76 260,78 259,78 257,80 256,80 254,82 253,82 251,84 250,84 242,92 242,93 238,97 238,98 236,100 236,101 234,103 234,104 232,106 232,108 230,110 230,112 228,114 228,117 227,118 227,119 226,120 226,122 225,123 225,126 224,127 224,134 223,135 223,152 224,153 224,159 225,160 225,162 226,163 226,167 227,168 227,169 228,170 228,171 229,172 229,173 230,174 230,176 231,177 231,178 232,179 232,180 234,182 234,183 237,186 237,187 240,190 240,191 250,201 251,201 253,203 254,203 256,205 257,205 259,207 260,207 262,209 264,209 266,211 268,211 269,212 270,212 271,213 273,213 274,214 275,214 276,215 280,215 281,216 283,216 284,217 297,217 298,218 299,218 300,217 310,217 311,218 311,219 312,220 312,223 313,224 313,225 314,226 314,229 315,230 315,231 316,232 316,235 317,236 317,237 318,238 318,241 319,242 319,243 320,244 320,247 321,248 321,249 322,250 322,253 323,254 323,255 324,256 324,259 325,260 325,261 326,262 326,265 328,267 328,271 330,273 330,277 332,279 332,283 334,285 334,289 336,291 336,295 338,297 338,301 340,303 340,307 342,309 342,313 344,315 344,319 346,321 346,325 348,327 348,331 350,333 350,337 352,339 352,343 354,345 354,349 356,351 356,355 358,357 358,361 360,363 360,367 358,369 357,369 356,370 355,370 354,371 353,371 352,372 351,372 350,373 349,373 348,374 347,374 345,376 344,376 343,377 342,377 341,378 340,378 336,382 335,382 331,386 330,386 316,400 316,401 315,402 314,402 314,403 311,406 311,407 308,410 308,411 306,413 306,414 304,416 304,417 302,419 302,420 301,421 301,422 300,423 300,424 299,425 299,426 298,427 298,429 297,430 297,431 296,432 296,434 294,436 294,439 293,440 293,441 292,442 292,444 291,445 291,447 290,448 290,452 289,453 289,455 288,456 288,460 287,461 287,467 286,468 286,496 285,497 284,497 283,498 278,498 277,499 275,499 274,500 269,500 268,501 265,501 264,502 260,502 259,503 256,503 255,504 251,504 250,505 247,505 246,506 241,506 240,507 238,507 237,508 232,508 231,509 229,509 228,510 223,510 222,511 219,511 218,512 214,512 213,513 210,513 209,514 204,514 203,515 201,515 200,516 195,516 194,517 192,517 191,518 186,518 185,519 183,519 182,520 177,520 176,521 174,521 173,522 168,522 167,523 166,523 165,522 164,522 163,521 163,519 161,517 161,515 159,513 159,512 158,511 158,510 155,507 155,506 153,504 153,503 151,501 151,500 150,500 149,499 149,498 148,498 147,497 147,496 146,496 141,491 140,491 138,489 137,489 136,488 135,488 133,486 132,486 130,484 129,484 128,483 127,483 126,482 124,482 123,481 122,481 121,480 119,480 118,479 117,479 116,478 112,478 111,477 108,477 107,476 99,476 98,475 97,476 82,476 81,477 79,477 78,478 74,478 73,479 71,479 70,480 68,480 67,481 66,481 65,482 63,482 62,483 61,483 60,484 59,484 58,485 57,485 55,487 54,487 51,490 50,490 48,492 47,492 36,503 36,504 34,506 34,507 32,509 32,510 31,511 31,512 30,513 30,514 28,516 28,518 26,520 26,523 24,525 24,528 23,529 23,530 22,531 22,536 21,537 21,540 20,541 20,561 21,562 21,564 22,565 22,569 23,570 23,572 24,573 24,576 25,577 25,578 26,579 26,581 28,583 28,585 29,586 29,587 30,588 30,589 33,592 33,593 35,595 35,596 50,611 51,611 52,612 53,612 54,613 55,613 57,615 58,615 60,617 62,617 63,618 64,618 65,619 67,619 68,620 69,620 70,621 72,621 73,622 74,622 75,623 80,623 81,624 84,624 85,625 106,625 107,624 109,624 110,623 114,623 115,622 117,622 118,621 120,621 121,620 122,620 123,619 125,619 126,618 127,618 128,617 130,617 132,615 133,615 135,613 136,613 138,611 139,611 141,609 142,609 153,598 153,597 155,595 155,594 157,592 157,591 159,589 159,588 160,587 160,586 162,584 162,583 163,582 163,580 164,579 164,578 165,577 165,576 166,575 166,573 167,572 167,568 168,567 168,565 169,564 169,546 170,545 173,545 174,544 177,544 178,543 182,543 183,542 186,542 187,541 192,541 193,540 195,540 196,539 201,539 202,538 204,538 205,537 210,537 211,536 214,536 215,535 220,535 221,534 223,534 224,533 229,533 230,532 232,532 233,531 239,531 240,530 242,530 243,529 248,529 249,528 251,528 252,527 258,527 259,526 261,526 262,525 267,525 268,524 270,524 271,523 277,523 278,522 279,522 280,521 286,521 287,520 289,520 290,519 294,523 294,525 295,526 295,527 296,528 296,531 297,532 297,533 298,534 298,535 299,536 299,537 300,538 300,539 301,540 301,541 302,542 302,543 304,545 304,547 306,549 306,550 308,552 308,553 310,555 310,556 312,558 312,559 316,563 316,564 327,575 328,575 335,582 336,582 338,584 339,584 342,587 343,587 345,589 346,589 347,590 348,590 349,591 350,591 352,593 354,593 356,595 358,595 360,597 362,597 363,598 364,598 365,599 367,599 368,600 369,600 370,601 373,601 374,602 376,602 377,603 380,603 381,604 384,604 385,605 391,605 392,606 396,606 397,607 399,607 400,608 400,689 398,691 395,691 394,692 391,692 390,693 388,693 387,694 385,694 384,695 383,695 382,696 381,696 380,697 379,697 378,698 377,698 376,699 375,699 373,701 372,701 371,702 370,702 368,704 367,704 363,708 362,708 362,709 361,710 360,710 360,711 359,712 358,712 358,713 357,714 356,714 356,715 355,716 354,716 354,717 352,719 352,720 348,724 348,726 346,728 346,729 345,730 345,731 344,732 344,734 343,735 343,736 342,737 342,739 341,740 341,741 340,742 340,745 339,746 339,748 338,749 338,756 337,757 337,774 338,775 338,780 339,781 339,782 340,783 340,788 341,789 341,790 342,791 342,792 343,793 343,794 344,795 344,797 346,799 346,801 348,803 348,804 350,806 350,807 352,809 352,810 354,812 354,813 364,823 365,823 367,825 368,825 370,827 371,827 373,829 375,829 377,831 378,831 379,832 380,832 381,833 383,833 384,834 385,834 386,835 388,835 389,836 390,836 391,837 394,837 395,838 398,838 399,839 407,839 408,840 409,839 425,839 426,838 428,838 429,837 433,837 434,836 436,836 437,835 438,835 439,834 440,834 441,833 443,833 444,832 445,832 446,831 447,831 448,830 449,830 450,829 451,829 453,827 454,827 456,825 457,825 459,823 460,823 466,817 466,816 472,810 472,809 473,808 473,807 475,805 475,804 477,802 477,801 479,799 479,798 480,797 480,795 481,794 481,792 482,791 482,790 483,789 483,786 484,785 484,784 485,783 485,776 486,775 486,772 487,771 487,758 486,757 486,752 485,751 485,746 484,745 484,743 483,742 483,739 482,738 482,737 481,736 481,735 480,734 480,733 479,732 479,730 477,728 477,726 473,722 473,721 471,719 471,718 459,706 458,706 456,704 455,704 453,702 452,702 450,700 449,700 447,698 446,698 445,697 444,697 443,696 441,696 440,695 439,695 438,694 436,694 435,693 432,693 431,692 425,692 423,690 423,608 424,607 425,607 426,606 429,606 430,605 436,605 437,604 439,604 440,603 444,603 445,602 447,602 448,601 450,601 451,600 453,600 454,599 456,599 457,598 458,598 459,597 461,597 462,596 463,596 464,595 465,595 466,594 467,594 468,593 469,593 471,591 473,591 475,589 476,589 478,587 479,587 481,585 482,585 483,584 484,584 487,581 488,581 492,577 493,577 502,568 503,568 505,570 506,570 509,573 510,573 514,577 515,577 517,579 518,579 522,583 523,583 526,586 527,586 531,590 532,590 535,593 536,593 540,597 541,597 544,600 545,600 549,604 549,605 548,606 548,608 547,609 547,610 546,611 546,613 545,614 545,615 544,616 544,618 543,619 543,621 542,622 542,628 541,629 541,632 540,633 540,646 541,647 541,652 542,653 542,657 543,658 543,660 544,661 544,664 545,665 545,666 546,667 546,669 547,670 547,671 548,672 548,674 549,675 549,676 550,677 550,678 552,680 552,681 554,683 554,684 556,686 556,687 564,695 565,695 566,696 566,697 567,697 570,700 571,700 573,702 574,702 575,703 576,703 578,705 579,705 581,707 582,707 583,708 584,708 585,709 587,709 588,710 589,710 590,711 593,711 594,712 595,712 596,713 602,713 603,714 607,714 608,715 622,715 623,714 627,714 628,713 634,713 635,712 637,712 638,711 641,711 643,709 645,709 646,708 647,708 648,707 649,707 650,706 651,706 652,705 653,705 655,703 656,703 658,701 659,701 662,698 663,698 674,687 674,686 676,684 676,683 677,682 677,681 679,679 679,678 681,676 681,674 683,672 683,670 684,669 684,668 685,667 685,665 686,664 686,663 687,662 687,660 688,659 688,656 689,655 689,648 690,647 690,631 689,630 689,625 688,624 688,622 687,621 687,617 686,616 686,615 685,614 685,612 684,611 684,610 683,609 683,607 682,606 682,605 681,604 681,603 680,602 680,601 677,598 677,597 675,595 675,594 661,580 660,580 658,578 657,578 655,576 654,576 653,575 652,575 651,574 650,574 648,572 646,572 645,571 644,571 643,570 641,570 640,569 639,569 638,568 634,568 633,567 631,567 630,566 622,566 621,565 610,565 609,566 601,566 600,567 598,567 597,568 593,568 592,569 591,569 590,570 589,570 588,571 587,571 586,572 584,572 583,573 582,573 581,574 580,574 578,576 577,576 576,577 575,577 574,578 573,578 569,582 568,582 565,585 564,585 561,582 560,582 558,580 557,580 553,576 552,576 548,572 547,572 543,568 542,568 539,565 538,565 535,562 534,562 530,558 529,558 525,554 524,554 521,551 520,551 518,549 518,548 519,547 519,546 520,545 520,544 521,543 521,542 523,540 523,539 524,538 524,537 525,536 525,534 526,533 526,532 527,531 527,529 528,528 528,527 529,526 529,525 530,524 530,523 531,522 531,518 532,517 532,515 533,514 533,509 534,508 534,507 535,506 535,497 536,496 536,491 537,490 537,475 536,474 536,467 535,466 535,458 534,457 534,454 533,453 533,450 532,449 532,448 531,447 531,444 530,443 530,441 529,440 529,438 528,437 528,436 527,435 527,433 525,431 525,429 524,428 524,427 523,426 523,425 522,424 522,423 521,422 521,421 519,419 519,418 518,417 518,416 517,415 517,414 515,412 515,411 513,409 513,408 520,401 521,401 521,400 522,399 523,399 531,391 532,391 538,385 539,385 539,384 540,383 541,383 549,375 550,375 556,369 557,369 557,368 558,367 559,367 565,361 566,361 567,360 569,360 570,361 571,361 573,363 574,363 576,365 577,365 578,366 579,366 580,367 581,367 583,369 585,369 586,370 587,370 588,371 591,371 592,372 593,372 594,373 598,373 599,374 603,374 604,375 626,375 627,374 629,374 630,373 635,373 636,372 638,372 639,371 641,371 642,370 643,370 644,369 646,369 648,367 650,367 651,366 652,366 655,363 656,363 658,361 659,361 661,359 662,359 675,346 675,345 677,343 677,342 678,341 678,340 679,339 679,338 681,336 681,335 682,334 682,333 683,332 683,330 684,329 684,328 685,327 685,325 686,324 686,323 687,322 687,318 688,317 688,314 689,313 689,305 690,304 689,303 689,287 688,286 688,285 687,284 687,280 686,279 686,277 685,276 685,274 684,273 684,272 683,271 683,270 682,269 682,268 681,267 681,265 680,264 680,263 678,261 678,260 676,258 676,257 674,255 674,254 671,251 671,250 670,250 669,249 669,248 668,248 667,247 667,246 666,246 660,240 659,240 657,238 655,238 653,236 652,236 650,234 648,234 646,232 643,232 641,230 638,230 636,228 632,228 631,227 628,227 627,226 619,226 618,225 617,226 602,226 601,227 599,227 598,228 594,228 593,229 591,229 590,230 588,230 586,232 584,232 583,233 582,233 581,234 580,234 579,235 578,235 577,236 576,236 573,239 572,239 570,241 569,241 565,245 564,245 557,252 557,253 554,256 554,257 552,259 552,260 550,262 550,263 549,264 549,265 548,266 548,267 547,268 547,269 546,270 546,272 545,273 545,274 544,275 544,277 543,278 543,280 542,281 542,285 541,286 541,289 540,290 540,313 541,314 541,316 542,317 542,321 543,322 543,323 544,324 544,326 545,327 545,328 546,329 546,331 547,332 547,333 548,334 548,335 549,336 549,337 550,338 550,339 551,340 551,341 542,350 541,350 535,356 534,356 534,357 533,358 532,358 524,366 523,366 517,372 516,372 506,382 505,382 499,388 498,388 496,390 492,386 491,386 485,380 484,380 482,378 481,378 479,376 478,376 477,375 476,375 474,373 473,373 472,372 471,372 469,370 468,370 467,369 466,369 465,368 464,368 463,367 462,367 461,366 459,366 458,365 457,365 456,364 454,364 453,363 451,363 450,362 448,362 447,361 445,361 444,360 439,360 438,359 436,359 435,358 426,358 425,357 399,357 398,358 389,358 388,359 386,359 385,360 384,360 381,357 381,354 380,353 380,352 379,351 379,348 378,347 378,346 377,345 377,342 376,341 376,340 375,339 375,336 374,335 374,334 373,333 373,330 372,329 372,328 371,327 371,324 370,323 370,322 369,321 369,318 368,317 368,316 367,315 367,312 366,311 366,310 365,309 365,306 364,305 364,304 363,303 363,300 362,299 362,298 361,297 361,294 360,293 360,292 359,291 359,288 358,287 358,286 357,285 357,282 356,281 356,280 355,279 355,276 354,275 354,274 353,273 353,270 352,269 352,268 351,267 351,264 350,263 350,262 349,261 349,258 348,257 348,256 347,255 347,252 346,251 346,250 345,249 345,246 344,245 344,244 343,243 343,240 342,239 342,238 341,237 341,234 340,233 340,232 339,231 339,228 338,227 338,226 337,225 337,222 336,221 336,220 335,219 335,216 334,215 334,214 333,213 333,209 335,207 336,207 337,206 338,206 339,205 340,205 342,203 343,203 350,196 351,196 353,194 353,193 359,187 359,186 360,185 360,184 361,183 361,182 363,180 363,179 364,178 364,177 365,176 365,175 366,174 366,173 367,172 367,169 368,168 368,167 369,166 369,164 370,163 370,161 371,160 371,154 372,153 372,150 373,149 373,136 372,135 372,131 371,130 371,125 370,124 370,123 369,122 369,118 367,116 367,114 366,113 366,112 365,111 365,109 363,107 363,105 361,103 361,102 359,100 359,99 357,97 357,96 345,84 344,84 342,82 341,82 339,80 338,80 336,78 335,78 333,76 331,76 329,74 326,74 325,73 324,73 323,72 320,72 318,70 312,70 311,69 308,69 307,68" fill="black" stroke="none" /></svg>